<svg width="142" height="40" viewBox="0 0 142 40" fill="none" xmlns="http://www.w3.org/2000/svg">
<g clip-path="url(#clip0_737_20509)">
<path d="M40 20C40 31.0457 31.0457 40 20 40C8.9543 40 0 31.0457 0 20C0 8.9543 8.9543 0 20 0C31.0457 0 40 8.9543 40 20Z" fill="#19373C"/>
<path d="M13.0296 17.915C12.7514 18.879 12.6714 19.838 12.7727 20.7815L27.0331 17.3153C26.68 16.3905 26.1354 15.5548 25.449 14.839C24.5927 13.951 23.4867 13.2665 22.2143 12.8922C20.2519 12.3158 18.241 12.5913 16.5844 13.5064C14.9246 14.4081 13.6059 15.9526 13.0296 17.915ZM25.175 25.425C25.5261 25.1122 26.0694 25.1223 26.396 25.4701C26.7121 25.8346 26.702 26.3778 26.3375 26.694C25.19 27.7704 23.7524 28.532 22.2169 28.8911C20.7218 29.2402 19.125 29.2302 17.5614 28.7703C15.1404 28.0634 13.2357 26.4339 12.1116 24.3867C11.0013 22.3365 10.6552 19.8585 11.362 17.4377C12.0826 15.0136 13.6951 13.0984 15.759 11.9849C17.8061 10.861 20.2873 10.5281 22.7082 11.2347C24.2718 11.6948 25.6283 12.5322 26.6949 13.6398C27.7977 14.7805 28.5801 16.1848 28.9796 17.7109C29.0938 18.1808 28.8224 18.6452 28.3553 18.7731L28.3016 18.7862L13.1539 22.468C13.2859 22.8345 13.4478 23.2081 13.6303 23.5483C14.5487 25.2179 16.0899 26.523 18.052 27.0993C19.3242 27.4732 20.6258 27.4987 21.822 27.208C23.0753 26.9176 24.2335 26.2947 25.175 25.425Z" fill="#099250"/>
</g>
<path d="M139.378 20.8988V20.8864V20.5524C139.341 18.7972 138.617 17.2023 137.462 16.0402C136.27 14.8408 134.624 14.0989 132.806 14.0989C130.987 14.0989 129.353 14.8408 128.161 16.0402C126.97 17.2393 126.233 18.8961 126.233 20.7257C126.233 22.5431 126.97 24.1996 128.161 25.399C129.353 26.5983 130.987 27.3399 132.806 27.3399C134.624 27.3399 136.27 26.5983 137.462 25.399C138.604 24.2489 139.341 22.6544 139.378 20.8988ZM140.926 20.8864V20.8988V20.9234V20.9358C140.865 23.0994 139.968 25.065 138.543 26.4991C137.081 27.9703 135.054 28.8852 132.806 28.8852C130.57 28.8852 128.542 27.9703 127.068 26.4991C125.606 25.0156 124.697 22.9759 124.697 20.7257C124.697 18.4634 125.606 16.4232 127.068 14.9521C128.542 13.4686 130.57 12.5538 132.806 12.5538C135.054 12.5538 137.081 13.4686 138.543 14.9521C138.85 15.249 139.133 15.5828 139.378 15.9286V5.77856C139.378 5.34594 139.722 5 140.152 5C140.582 5 140.926 5.34594 140.926 5.77856V20.5648V20.7257V20.8741V20.8864Z" fill="#19373C"/>
<path d="M90.2251 20.9358V20.8864V20.7257C90.2251 18.4634 91.1343 16.4232 92.596 14.952C94.0706 13.4685 96.0977 12.5537 98.3336 12.5537C100.582 12.5537 102.609 13.4685 104.071 14.952C105.545 16.4232 106.454 18.4634 106.454 20.7257V20.7875V20.8369V20.8864V28.1189C106.454 28.5393 106.11 28.8852 105.68 28.8852C105.263 28.8852 104.919 28.5393 104.919 28.1189V20.8864V20.8246V20.7753V20.7257C104.919 18.8961 104.181 17.2393 102.99 16.0402C101.798 14.8408 100.152 14.0988 98.3336 14.0988C96.5276 14.0988 94.8813 14.8408 93.6897 16.0402C92.4979 17.2393 91.7606 18.8961 91.7606 20.7257V20.7753L91.7733 20.8864V28.1189C91.7733 28.5393 91.417 28.8852 90.9992 28.8852C90.5691 28.8852 90.2251 28.5393 90.2251 28.1189V20.9358Z" fill="#19373C"/>
<path d="M88.4647 13.5244C88.0347 13.5244 87.6906 13.8706 87.6906 14.3034V21.5231V21.5976V21.6347V21.6963C87.6906 23.5138 86.9533 25.1703 85.7618 26.3696C84.5824 27.5689 82.9359 28.3105 81.118 28.3105C79.2997 28.3105 77.6532 27.5689 76.4619 26.3696C75.2823 25.1703 74.5453 23.5138 74.5453 21.6963H74.5326V21.6347L74.5453 21.5231V14.3034C74.5453 13.8706 74.2008 13.5244 73.7711 13.5244C73.3533 13.5244 73.0094 13.8706 73.0094 14.3034V21.486V21.5231V21.6841V21.6963H72.9971C72.9971 23.9465 73.9061 25.9862 75.3804 27.4697C76.8427 28.9409 78.8819 29.8558 81.118 29.8558C83.3539 29.8558 85.3809 28.9409 86.8552 27.4697C87.1551 27.1654 87.4312 26.8372 87.6815 26.489C87.7447 27.6436 87.5046 28.795 86.9844 29.8266C86.4867 30.8207 85.7275 31.7068 84.7209 32.3716C83.7142 33.0366 82.604 33.3852 81.4897 33.4558L81.2373 33.4698L81.2355 33.4717V33.4736C80.8586 33.5104 80.5639 33.83 80.5639 34.2189V34.2521C80.5639 34.4872 80.6813 34.7105 80.8669 34.8512C81.0842 35.0159 81.3228 35.0071 81.5808 34.9927C82.9648 34.9071 84.3309 34.4774 85.5634 33.6634C86.7957 32.8494 87.7307 31.7593 88.349 30.5224C88.8765 29.4745 89.1708 28.3243 89.2189 27.1615H89.2261V21.6963V21.6223V21.5848V21.5231V21.0446V14.3034C89.2261 13.8706 88.8825 13.5244 88.4647 13.5244Z" fill="#19373C"/>
<path d="M121.312 26.4968C119.849 27.9694 117.82 28.8851 115.569 28.8851C113.331 28.8851 111.29 27.9694 109.827 26.4968C108.363 25.012 107.453 22.9704 107.453 20.7182C107.453 18.4538 108.363 16.4117 109.827 14.9393C111.29 13.4545 113.331 12.5388 115.569 12.5388C117.807 12.5388 119.849 13.4545 121.312 14.9393C122.788 16.4117 123.698 18.4538 123.698 20.7182C123.698 22.9704 122.788 25.012 121.312 26.4968ZM115.569 27.3384C117.389 27.3384 119.037 26.5961 120.23 25.3957C121.41 24.1953 122.148 22.5372 122.148 20.7182C122.148 18.8869 121.41 17.2286 120.23 16.0284C119.037 14.828 117.389 14.0854 115.569 14.0854C113.749 14.0854 112.102 14.828 110.921 16.0284C109.728 17.2286 108.991 18.8869 108.991 20.7182C108.991 22.5372 109.728 24.1953 110.921 25.3957C112.102 26.5961 113.749 27.3384 115.569 27.3384Z" fill="#19373C"/>
<path d="M57.8077 18.8598C57.5606 19.7215 57.4896 20.5786 57.5795 21.4219L70.2457 18.3238C69.9321 17.4972 69.4484 16.7502 68.8387 16.1104C68.0782 15.3168 67.0958 14.705 65.9656 14.3704C64.2226 13.8552 62.4365 14.1015 60.9651 14.9194C59.4909 15.7253 58.3196 17.1058 57.8077 18.8598ZM68.5953 25.5723C68.9073 25.2928 69.3898 25.3018 69.6798 25.6126C69.9607 25.9384 69.9517 26.424 69.6279 26.7066C68.6087 27.6687 67.3317 28.3495 65.968 28.6705C64.64 28.9826 63.2217 28.9734 61.8329 28.5625C59.6826 27.9307 57.9908 26.4741 56.9923 24.6443C56.0061 22.8118 55.6987 20.5969 56.3265 18.4332C56.9666 16.2665 58.3988 14.5547 60.232 13.5594C62.0502 12.5548 64.254 12.2573 66.4044 12.8889C67.7931 13.3002 68.998 14.0486 69.9453 15.0385C70.9249 16.0582 71.6198 17.3133 71.9746 18.6774C72.0761 19.0974 71.8351 19.5126 71.4201 19.6269L71.3724 19.6385L57.9181 22.9293C58.0354 23.2569 58.1792 23.5909 58.3412 23.8949C59.1569 25.3873 60.5259 26.5537 62.2686 27.0689C63.3986 27.4031 64.5547 27.4259 65.6172 27.166C66.7304 26.9065 67.7591 26.3497 68.5953 25.5723Z" fill="#19373C"/>
<defs>
<clipPath id="clip0_737_20509">
<rect width="40" height="40" fill="white"/>
</clipPath>
</defs>
</svg>
