<svg width="66" height="66" viewBox="0 0 66 66" fill="none" xmlns="http://www.w3.org/2000/svg">
<g clip-path="url(#clip0_737_21034)">
<path d="M65.0161 0H0V65.0161H65.0161V0Z" fill="white"/>
<path d="M6.02517 4.06348H4.06348V6.02517H6.02517V4.06348Z" fill="black"/>
<path d="M7.98686 4.06348H6.02517V6.02517H7.98686V4.06348Z" fill="black"/>
<path d="M9.94856 4.06348H7.98686V6.02517H9.94856V4.06348Z" fill="black"/>
<path d="M11.9102 4.06348H9.94856V6.02517H11.9102V4.06348Z" fill="black"/>
<path d="M13.8719 4.06348H11.9102V6.02517H13.8719V4.06348Z" fill="black"/>
<path d="M15.8336 4.06348H13.8719V6.02517H15.8336V4.06348Z" fill="black"/>
<path d="M17.7953 4.06348H15.8336V6.02517H17.7953V4.06348Z" fill="black"/>
<path d="M23.6804 4.06348H21.7187V6.02517H23.6804V4.06348Z" fill="black"/>
<path d="M25.6421 4.06348H23.6804V6.02517H25.6421V4.06348Z" fill="black"/>
<path d="M33.4889 4.06348H31.5272V6.02517H33.4889V4.06348Z" fill="black"/>
<path d="M37.4123 4.06348H35.4506V6.02517H37.4123V4.06348Z" fill="black"/>
<path d="M41.3356 4.06348H39.374V6.02517H41.3356V4.06348Z" fill="black"/>
<path d="M49.1824 4.06348H47.2207V6.02517H49.1824V4.06348Z" fill="black"/>
<path d="M51.1441 4.06348H49.1824V6.02517H51.1441V4.06348Z" fill="black"/>
<path d="M53.1058 4.06348H51.1441V6.02517H53.1058V4.06348Z" fill="black"/>
<path d="M55.0675 4.06348H53.1058V6.02517H55.0675V4.06348Z" fill="black"/>
<path d="M57.0292 4.06348H55.0675V6.02517H57.0292V4.06348Z" fill="black"/>
<path d="M58.9909 4.06348H57.0292V6.02517H58.9909V4.06348Z" fill="black"/>
<path d="M60.9526 4.06348H58.9909V6.02517H60.9526V4.06348Z" fill="black"/>
<path d="M6.02517 6.02517H4.06348V7.98686H6.02517V6.02517Z" fill="black"/>
<path d="M17.7953 6.02517H15.8336V7.98686H17.7953V6.02517Z" fill="black"/>
<path d="M21.7187 6.02517H19.757V7.98686H21.7187V6.02517Z" fill="black"/>
<path d="M23.6804 6.02517H21.7187V7.98686H23.6804V6.02517Z" fill="black"/>
<path d="M31.5272 6.02517H29.5655V7.98686H31.5272V6.02517Z" fill="black"/>
<path d="M35.4506 6.02517H33.4889V7.98686H35.4506V6.02517Z" fill="black"/>
<path d="M45.259 6.02517H43.2973V7.98686H45.259V6.02517Z" fill="black"/>
<path d="M49.1824 6.02517H47.2207V7.98686H49.1824V6.02517Z" fill="black"/>
<path d="M60.9526 6.02517H58.9909V7.98686H60.9526V6.02517Z" fill="black"/>
<path d="M6.02517 7.98686H4.06348V9.94856H6.02517V7.98686Z" fill="black"/>
<path d="M9.94856 7.98686H7.98686V9.94856H9.94856V7.98686Z" fill="black"/>
<path d="M11.9102 7.98686H9.94856V9.94856H11.9102V7.98686Z" fill="black"/>
<path d="M13.8719 7.98686H11.9102V9.94856H13.8719V7.98686Z" fill="black"/>
<path d="M17.7953 7.98686H15.8336V9.94856H17.7953V7.98686Z" fill="black"/>
<path d="M21.7187 7.98686H19.757V9.94856H21.7187V7.98686Z" fill="black"/>
<path d="M31.5272 7.98686H29.5655V9.94856H31.5272V7.98686Z" fill="black"/>
<path d="M33.4889 7.98686H31.5272V9.94856H33.4889V7.98686Z" fill="black"/>
<path d="M43.2973 7.98686H41.3356V9.94856H43.2973V7.98686Z" fill="black"/>
<path d="M45.259 7.98686H43.2973V9.94856H45.259V7.98686Z" fill="black"/>
<path d="M49.1824 7.98686H47.2207V9.94856H49.1824V7.98686Z" fill="black"/>
<path d="M53.1058 7.98686H51.1441V9.94856H53.1058V7.98686Z" fill="black"/>
<path d="M55.0675 7.98686H53.1058V9.94856H55.0675V7.98686Z" fill="black"/>
<path d="M57.0292 7.98686H55.0675V9.94856H57.0292V7.98686Z" fill="black"/>
<path d="M60.9526 7.98686H58.9909V9.94856H60.9526V7.98686Z" fill="black"/>
<path d="M6.02517 9.94856H4.06348V11.9102H6.02517V9.94856Z" fill="black"/>
<path d="M9.94856 9.94856H7.98686V11.9102H9.94856V9.94856Z" fill="black"/>
<path d="M11.9102 9.94856H9.94856V11.9102H11.9102V9.94856Z" fill="black"/>
<path d="M13.8719 9.94856H11.9102V11.9102H13.8719V9.94856Z" fill="black"/>
<path d="M17.7953 9.94856H15.8336V11.9102H17.7953V9.94856Z" fill="black"/>
<path d="M21.7187 9.94856H19.757V11.9102H21.7187V9.94856Z" fill="black"/>
<path d="M23.6804 9.94856H21.7187V11.9102H23.6804V9.94856Z" fill="black"/>
<path d="M29.5655 9.94856H27.6038V11.9102H29.5655V9.94856Z" fill="black"/>
<path d="M31.5272 9.94856H29.5655V11.9102H31.5272V9.94856Z" fill="black"/>
<path d="M35.4506 9.94856H33.4889V11.9102H35.4506V9.94856Z" fill="black"/>
<path d="M39.374 9.94856H37.4123V11.9102H39.374V9.94856Z" fill="black"/>
<path d="M41.3356 9.94856H39.374V11.9102H41.3356V9.94856Z" fill="black"/>
<path d="M43.2973 9.94856H41.3356V11.9102H43.2973V9.94856Z" fill="black"/>
<path d="M45.259 9.94856H43.2973V11.9102H45.259V9.94856Z" fill="black"/>
<path d="M49.1824 9.94856H47.2207V11.9102H49.1824V9.94856Z" fill="black"/>
<path d="M53.1058 9.94856H51.1441V11.9102H53.1058V9.94856Z" fill="black"/>
<path d="M55.0675 9.94856H53.1058V11.9102H55.0675V9.94856Z" fill="black"/>
<path d="M57.0292 9.94856H55.0675V11.9102H57.0292V9.94856Z" fill="black"/>
<path d="M60.9526 9.94856H58.9909V11.9102H60.9526V9.94856Z" fill="black"/>
<path d="M6.02517 11.9102H4.06348V13.8719H6.02517V11.9102Z" fill="black"/>
<path d="M9.94856 11.9102H7.98686V13.8719H9.94856V11.9102Z" fill="black"/>
<path d="M11.9102 11.9102H9.94856V13.8719H11.9102V11.9102Z" fill="black"/>
<path d="M13.8719 11.9102H11.9102V13.8719H13.8719V11.9102Z" fill="black"/>
<path d="M17.7953 11.9102H15.8336V13.8719H17.7953V11.9102Z" fill="black"/>
<path d="M25.6421 11.9102H23.6804V13.8719H25.6421V11.9102Z" fill="black"/>
<path d="M31.5272 11.9102H29.5655V13.8719H31.5272V11.9102Z" fill="black"/>
<path d="M33.4889 11.9102H31.5272V13.8719H33.4889V11.9102Z" fill="black"/>
<path d="M37.4123 11.9102H35.4506V13.8719H37.4123V11.9102Z" fill="black"/>
<path d="M41.3356 11.9102H39.374V13.8719H41.3356V11.9102Z" fill="black"/>
<path d="M49.1824 11.9102H47.2207V13.8719H49.1824V11.9102Z" fill="black"/>
<path d="M53.1058 11.9102H51.1441V13.8719H53.1058V11.9102Z" fill="black"/>
<path d="M55.0675 11.9102H53.1058V13.8719H55.0675V11.9102Z" fill="black"/>
<path d="M57.0292 11.9102H55.0675V13.8719H57.0292V11.9102Z" fill="black"/>
<path d="M60.9526 11.9102H58.9909V13.8719H60.9526V11.9102Z" fill="black"/>
<path d="M6.02517 13.8719H4.06348V15.8336H6.02517V13.8719Z" fill="black"/>
<path d="M17.7953 13.8719H15.8336V15.8336H17.7953V13.8719Z" fill="black"/>
<path d="M21.7187 13.8719H19.757V15.8336H21.7187V13.8719Z" fill="black"/>
<path d="M31.5272 13.8719H29.5655V15.8336H31.5272V13.8719Z" fill="black"/>
<path d="M35.4506 13.8719H33.4889V15.8336H35.4506V13.8719Z" fill="black"/>
<path d="M37.4123 13.8719H35.4506V15.8336H37.4123V13.8719Z" fill="black"/>
<path d="M41.3356 13.8719H39.374V15.8336H41.3356V13.8719Z" fill="black"/>
<path d="M49.1824 13.8719H47.2207V15.8336H49.1824V13.8719Z" fill="black"/>
<path d="M60.9526 13.8719H58.9909V15.8336H60.9526V13.8719Z" fill="black"/>
<path d="M6.02517 15.8336H4.06348V17.7953H6.02517V15.8336Z" fill="black"/>
<path d="M7.98686 15.8336H6.02517V17.7953H7.98686V15.8336Z" fill="black"/>
<path d="M9.94856 15.8336H7.98686V17.7953H9.94856V15.8336Z" fill="black"/>
<path d="M11.9102 15.8336H9.94856V17.7953H11.9102V15.8336Z" fill="black"/>
<path d="M13.8719 15.8336H11.9102V17.7953H13.8719V15.8336Z" fill="black"/>
<path d="M15.8336 15.8336H13.8719V17.7953H15.8336V15.8336Z" fill="black"/>
<path d="M17.7953 15.8336H15.8336V17.7953H17.7953V15.8336Z" fill="black"/>
<path d="M21.7187 15.8336H19.757V17.7953H21.7187V15.8336Z" fill="black"/>
<path d="M25.6421 15.8336H23.6804V17.7953H25.6421V15.8336Z" fill="black"/>
<path d="M29.5655 15.8336H27.6038V17.7953H29.5655V15.8336Z" fill="black"/>
<path d="M33.4889 15.8336H31.5272V17.7953H33.4889V15.8336Z" fill="black"/>
<path d="M37.4123 15.8336H35.4506V17.7953H37.4123V15.8336Z" fill="black"/>
<path d="M41.3356 15.8336H39.374V17.7953H41.3356V15.8336Z" fill="black"/>
<path d="M45.259 15.8336H43.2973V17.7953H45.259V15.8336Z" fill="black"/>
<path d="M49.1824 15.8336H47.2207V17.7953H49.1824V15.8336Z" fill="black"/>
<path d="M51.1441 15.8336H49.1824V17.7953H51.1441V15.8336Z" fill="black"/>
<path d="M53.1058 15.8336H51.1441V17.7953H53.1058V15.8336Z" fill="black"/>
<path d="M55.0675 15.8336H53.1058V17.7953H55.0675V15.8336Z" fill="black"/>
<path d="M57.0292 15.8336H55.0675V17.7953H57.0292V15.8336Z" fill="black"/>
<path d="M58.9909 15.8336H57.0292V17.7953H58.9909V15.8336Z" fill="black"/>
<path d="M60.9526 15.8336H58.9909V17.7953H60.9526V15.8336Z" fill="black"/>
<path d="M23.6804 17.7953H21.7187V19.757H23.6804V17.7953Z" fill="black"/>
<path d="M25.6421 17.7953H23.6804V19.757H25.6421V17.7953Z" fill="black"/>
<path d="M27.6038 17.7953H25.6421V19.757H27.6038V17.7953Z" fill="black"/>
<path d="M29.5655 17.7953H27.6038V19.757H29.5655V17.7953Z" fill="black"/>
<path d="M31.5272 17.7953H29.5655V19.757H31.5272V17.7953Z" fill="black"/>
<path d="M33.4889 17.7953H31.5272V19.757H33.4889V17.7953Z" fill="black"/>
<path d="M35.4506 17.7953H33.4889V19.757H35.4506V17.7953Z" fill="black"/>
<path d="M45.259 17.7953H43.2973V19.757H45.259V17.7953Z" fill="black"/>
<path d="M7.98686 19.757H6.02517V21.7187H7.98686V19.757Z" fill="black"/>
<path d="M9.94856 19.757H7.98686V21.7187H9.94856V19.757Z" fill="black"/>
<path d="M17.7953 19.757H15.8336V21.7187H17.7953V19.757Z" fill="black"/>
<path d="M23.6804 19.757H21.7187V21.7187H23.6804V19.757Z" fill="black"/>
<path d="M33.4889 19.757H31.5272V21.7187H33.4889V19.757Z" fill="black"/>
<path d="M37.4123 19.757H35.4506V21.7187H37.4123V19.757Z" fill="black"/>
<path d="M41.3356 19.757H39.374V21.7187H41.3356V19.757Z" fill="black"/>
<path d="M43.2973 19.757H41.3356V21.7187H43.2973V19.757Z" fill="black"/>
<path d="M47.2207 19.757H45.259V21.7187H47.2207V19.757Z" fill="black"/>
<path d="M51.1441 19.757H49.1824V21.7187H51.1441V19.757Z" fill="black"/>
<path d="M55.0675 19.757H53.1058V21.7187H55.0675V19.757Z" fill="black"/>
<path d="M57.0292 19.757H55.0675V21.7187H57.0292V19.757Z" fill="black"/>
<path d="M58.9909 19.757H57.0292V21.7187H58.9909V19.757Z" fill="black"/>
<path d="M9.94856 21.7187H7.98686V23.6804H9.94856V21.7187Z" fill="black"/>
<path d="M13.8719 21.7187H11.9102V23.6804H13.8719V21.7187Z" fill="black"/>
<path d="M21.7187 21.7187H19.757V23.6804H21.7187V21.7187Z" fill="black"/>
<path d="M23.6804 21.7187H21.7187V23.6804H23.6804V21.7187Z" fill="black"/>
<path d="M25.6421 21.7187H23.6804V23.6804H25.6421V21.7187Z" fill="black"/>
<path d="M27.6038 21.7187H25.6421V23.6804H27.6038V21.7187Z" fill="black"/>
<path d="M35.4506 21.7187H33.4889V23.6804H35.4506V21.7187Z" fill="black"/>
<path d="M37.4123 21.7187H35.4506V23.6804H37.4123V21.7187Z" fill="black"/>
<path d="M49.1824 21.7187H47.2207V23.6804H49.1824V21.7187Z" fill="black"/>
<path d="M55.0675 21.7187H53.1058V23.6804H55.0675V21.7187Z" fill="black"/>
<path d="M57.0292 21.7187H55.0675V23.6804H57.0292V21.7187Z" fill="black"/>
<path d="M58.9909 21.7187H57.0292V23.6804H58.9909V21.7187Z" fill="black"/>
<path d="M60.9526 21.7187H58.9909V23.6804H60.9526V21.7187Z" fill="black"/>
<path d="M6.02517 23.6804H4.06348V25.6421H6.02517V23.6804Z" fill="black"/>
<path d="M9.94856 23.6804H7.98686V25.6421H9.94856V23.6804Z" fill="black"/>
<path d="M11.9102 23.6804H9.94856V25.6421H11.9102V23.6804Z" fill="black"/>
<path d="M13.8719 23.6804H11.9102V25.6421H13.8719V23.6804Z" fill="black"/>
<path d="M15.8336 23.6804H13.8719V25.6421H15.8336V23.6804Z" fill="black"/>
<path d="M17.7953 23.6804H15.8336V25.6421H17.7953V23.6804Z" fill="black"/>
<path d="M23.6804 23.6804H21.7187V25.6421H23.6804V23.6804Z" fill="black"/>
<path d="M25.6421 23.6804H23.6804V25.6421H25.6421V23.6804Z" fill="black"/>
<path d="M29.5655 23.6804H27.6038V25.6421H29.5655V23.6804Z" fill="black"/>
<path d="M35.4506 23.6804H33.4889V25.6421H35.4506V23.6804Z" fill="black"/>
<path d="M39.374 23.6804H37.4123V25.6421H39.374V23.6804Z" fill="black"/>
<path d="M43.2973 23.6804H41.3356V25.6421H43.2973V23.6804Z" fill="black"/>
<path d="M51.1441 23.6804H49.1824V25.6421H51.1441V23.6804Z" fill="black"/>
<path d="M53.1058 23.6804H51.1441V25.6421H53.1058V23.6804Z" fill="black"/>
<path d="M55.0675 23.6804H53.1058V25.6421H55.0675V23.6804Z" fill="black"/>
<path d="M7.98686 25.6421H6.02517V27.6038H7.98686V25.6421Z" fill="black"/>
<path d="M11.9102 25.6421H9.94856V27.6038H11.9102V25.6421Z" fill="black"/>
<path d="M13.8719 25.6421H11.9102V27.6038H13.8719V25.6421Z" fill="black"/>
<path d="M15.8336 25.6421H13.8719V27.6038H15.8336V25.6421Z" fill="black"/>
<path d="M27.6038 25.6421H25.6421V27.6038H27.6038V25.6421Z" fill="black"/>
<path d="M33.4889 25.6421H31.5272V27.6038H33.4889V25.6421Z" fill="black"/>
<path d="M35.4506 25.6421H33.4889V27.6038H35.4506V25.6421Z" fill="black"/>
<path d="M39.374 25.6421H37.4123V27.6038H39.374V25.6421Z" fill="black"/>
<path d="M49.1824 25.6421H47.2207V27.6038H49.1824V25.6421Z" fill="black"/>
<path d="M55.0675 25.6421H53.1058V27.6038H55.0675V25.6421Z" fill="black"/>
<path d="M57.0292 25.6421H55.0675V27.6038H57.0292V25.6421Z" fill="black"/>
<path d="M7.98686 27.6038H6.02517V29.5655H7.98686V27.6038Z" fill="black"/>
<path d="M11.9102 27.6038H9.94856V29.5655H11.9102V27.6038Z" fill="black"/>
<path d="M13.8719 27.6038H11.9102V29.5655H13.8719V27.6038Z" fill="black"/>
<path d="M17.7953 27.6038H15.8336V29.5655H17.7953V27.6038Z" fill="black"/>
<path d="M21.7187 27.6038H19.757V29.5655H21.7187V27.6038Z" fill="black"/>
<path d="M23.6804 27.6038H21.7187V29.5655H23.6804V27.6038Z" fill="black"/>
<path d="M27.6038 27.6038H25.6421V29.5655H27.6038V27.6038Z" fill="black"/>
<path d="M29.5655 27.6038H27.6038V29.5655H29.5655V27.6038Z" fill="black"/>
<path d="M31.5272 27.6038H29.5655V29.5655H31.5272V27.6038Z" fill="black"/>
<path d="M35.4506 27.6038H33.4889V29.5655H35.4506V27.6038Z" fill="black"/>
<path d="M37.4123 27.6038H35.4506V29.5655H37.4123V27.6038Z" fill="black"/>
<path d="M39.374 27.6038H37.4123V29.5655H39.374V27.6038Z" fill="black"/>
<path d="M41.3356 27.6038H39.374V29.5655H41.3356V27.6038Z" fill="black"/>
<path d="M43.2973 27.6038H41.3356V29.5655H43.2973V27.6038Z" fill="black"/>
<path d="M45.259 27.6038H43.2973V29.5655H45.259V27.6038Z" fill="black"/>
<path d="M47.2207 27.6038H45.259V29.5655H47.2207V27.6038Z" fill="black"/>
<path d="M49.1824 27.6038H47.2207V29.5655H49.1824V27.6038Z" fill="black"/>
<path d="M55.0675 27.6038H53.1058V29.5655H55.0675V27.6038Z" fill="black"/>
<path d="M57.0292 27.6038H55.0675V29.5655H57.0292V27.6038Z" fill="black"/>
<path d="M9.94856 29.5655H7.98686V31.5272H9.94856V29.5655Z" fill="black"/>
<path d="M13.8719 29.5655H11.9102V31.5272H13.8719V29.5655Z" fill="black"/>
<path d="M19.757 29.5655H17.7953V31.5272H19.757V29.5655Z" fill="black"/>
<path d="M21.7187 29.5655H19.757V31.5272H21.7187V29.5655Z" fill="black"/>
<path d="M25.6421 29.5655H23.6804V31.5272H25.6421V29.5655Z" fill="black"/>
<path d="M29.5655 29.5655H27.6038V31.5272H29.5655V29.5655Z" fill="black"/>
<path d="M35.4506 29.5655H33.4889V31.5272H35.4506V29.5655Z" fill="black"/>
<path d="M37.4123 29.5655H35.4506V31.5272H37.4123V29.5655Z" fill="black"/>
<path d="M39.374 29.5655H37.4123V31.5272H39.374V29.5655Z" fill="black"/>
<path d="M41.3356 29.5655H39.374V31.5272H41.3356V29.5655Z" fill="black"/>
<path d="M49.1824 29.5655H47.2207V31.5272H49.1824V29.5655Z" fill="black"/>
<path d="M57.0292 29.5655H55.0675V31.5272H57.0292V29.5655Z" fill="black"/>
<path d="M60.9526 29.5655H58.9909V31.5272H60.9526V29.5655Z" fill="black"/>
<path d="M6.02517 31.5272H4.06348V33.4889H6.02517V31.5272Z" fill="black"/>
<path d="M7.98686 31.5272H6.02517V33.4889H7.98686V31.5272Z" fill="black"/>
<path d="M9.94856 31.5272H7.98686V33.4889H9.94856V31.5272Z" fill="black"/>
<path d="M13.8719 31.5272H11.9102V33.4889H13.8719V31.5272Z" fill="black"/>
<path d="M15.8336 31.5272H13.8719V33.4889H15.8336V31.5272Z" fill="black"/>
<path d="M17.7953 31.5272H15.8336V33.4889H17.7953V31.5272Z" fill="black"/>
<path d="M21.7187 31.5272H19.757V33.4889H21.7187V31.5272Z" fill="black"/>
<path d="M23.6804 31.5272H21.7187V33.4889H23.6804V31.5272Z" fill="black"/>
<path d="M29.5655 31.5272H27.6038V33.4889H29.5655V31.5272Z" fill="black"/>
<path d="M35.4506 31.5272H33.4889V33.4889H35.4506V31.5272Z" fill="black"/>
<path d="M39.374 31.5272H37.4123V33.4889H39.374V31.5272Z" fill="black"/>
<path d="M45.259 31.5272H43.2973V33.4889H45.259V31.5272Z" fill="black"/>
<path d="M55.0675 31.5272H53.1058V33.4889H55.0675V31.5272Z" fill="black"/>
<path d="M57.0292 31.5272H55.0675V33.4889H57.0292V31.5272Z" fill="black"/>
<path d="M58.9909 31.5272H57.0292V33.4889H58.9909V31.5272Z" fill="black"/>
<path d="M6.02517 33.4889H4.06348V35.4506H6.02517V33.4889Z" fill="black"/>
<path d="M7.98686 33.4889H6.02517V35.4506H7.98686V33.4889Z" fill="black"/>
<path d="M21.7187 33.4889H19.757V35.4506H21.7187V33.4889Z" fill="black"/>
<path d="M23.6804 33.4889H21.7187V35.4506H23.6804V33.4889Z" fill="black"/>
<path d="M27.6038 33.4889H25.6421V35.4506H27.6038V33.4889Z" fill="black"/>
<path d="M29.5655 33.4889H27.6038V35.4506H29.5655V33.4889Z" fill="black"/>
<path d="M33.4889 33.4889H31.5272V35.4506H33.4889V33.4889Z" fill="black"/>
<path d="M35.4506 33.4889H33.4889V35.4506H35.4506V33.4889Z" fill="black"/>
<path d="M43.2973 33.4889H41.3356V35.4506H43.2973V33.4889Z" fill="black"/>
<path d="M45.259 33.4889H43.2973V35.4506H45.259V33.4889Z" fill="black"/>
<path d="M51.1441 33.4889H49.1824V35.4506H51.1441V33.4889Z" fill="black"/>
<path d="M53.1058 33.4889H51.1441V35.4506H53.1058V33.4889Z" fill="black"/>
<path d="M58.9909 33.4889H57.0292V35.4506H58.9909V33.4889Z" fill="black"/>
<path d="M6.02517 35.4506H4.06348V37.4123H6.02517V35.4506Z" fill="black"/>
<path d="M11.9102 35.4506H9.94856V37.4123H11.9102V35.4506Z" fill="black"/>
<path d="M13.8719 35.4506H11.9102V37.4123H13.8719V35.4506Z" fill="black"/>
<path d="M17.7953 35.4506H15.8336V37.4123H17.7953V35.4506Z" fill="black"/>
<path d="M29.5655 35.4506H27.6038V37.4123H29.5655V35.4506Z" fill="black"/>
<path d="M31.5272 35.4506H29.5655V37.4123H31.5272V35.4506Z" fill="black"/>
<path d="M35.4506 35.4506H33.4889V37.4123H35.4506V35.4506Z" fill="black"/>
<path d="M43.2973 35.4506H41.3356V37.4123H43.2973V35.4506Z" fill="black"/>
<path d="M45.259 35.4506H43.2973V37.4123H45.259V35.4506Z" fill="black"/>
<path d="M47.2207 35.4506H45.259V37.4123H47.2207V35.4506Z" fill="black"/>
<path d="M49.1824 35.4506H47.2207V37.4123H49.1824V35.4506Z" fill="black"/>
<path d="M53.1058 35.4506H51.1441V37.4123H53.1058V35.4506Z" fill="black"/>
<path d="M60.9526 35.4506H58.9909V37.4123H60.9526V35.4506Z" fill="black"/>
<path d="M11.9102 37.4123H9.94856V39.374H11.9102V37.4123Z" fill="black"/>
<path d="M15.8336 37.4123H13.8719V39.374H15.8336V37.4123Z" fill="black"/>
<path d="M25.6421 37.4123H23.6804V39.374H25.6421V37.4123Z" fill="black"/>
<path d="M29.5655 37.4123H27.6038V39.374H29.5655V37.4123Z" fill="black"/>
<path d="M31.5272 37.4123H29.5655V39.374H31.5272V37.4123Z" fill="black"/>
<path d="M37.4123 37.4123H35.4506V39.374H37.4123V37.4123Z" fill="black"/>
<path d="M43.2973 37.4123H41.3356V39.374H43.2973V37.4123Z" fill="black"/>
<path d="M45.259 37.4123H43.2973V39.374H45.259V37.4123Z" fill="black"/>
<path d="M47.2207 37.4123H45.259V39.374H47.2207V37.4123Z" fill="black"/>
<path d="M51.1441 37.4123H49.1824V39.374H51.1441V37.4123Z" fill="black"/>
<path d="M55.0675 37.4123H53.1058V39.374H55.0675V37.4123Z" fill="black"/>
<path d="M7.98686 39.374H6.02517V41.3356H7.98686V39.374Z" fill="black"/>
<path d="M9.94856 39.374H7.98686V41.3356H9.94856V39.374Z" fill="black"/>
<path d="M15.8336 39.374H13.8719V41.3356H15.8336V39.374Z" fill="black"/>
<path d="M17.7953 39.374H15.8336V41.3356H17.7953V39.374Z" fill="black"/>
<path d="M21.7187 39.374H19.757V41.3356H21.7187V39.374Z" fill="black"/>
<path d="M23.6804 39.374H21.7187V41.3356H23.6804V39.374Z" fill="black"/>
<path d="M25.6421 39.374H23.6804V41.3356H25.6421V39.374Z" fill="black"/>
<path d="M27.6038 39.374H25.6421V41.3356H27.6038V39.374Z" fill="black"/>
<path d="M31.5272 39.374H29.5655V41.3356H31.5272V39.374Z" fill="black"/>
<path d="M39.374 39.374H37.4123V41.3356H39.374V39.374Z" fill="black"/>
<path d="M41.3356 39.374H39.374V41.3356H41.3356V39.374Z" fill="black"/>
<path d="M43.2973 39.374H41.3356V41.3356H43.2973V39.374Z" fill="black"/>
<path d="M45.259 39.374H43.2973V41.3356H45.259V39.374Z" fill="black"/>
<path d="M47.2207 39.374H45.259V41.3356H47.2207V39.374Z" fill="black"/>
<path d="M49.1824 39.374H47.2207V41.3356H49.1824V39.374Z" fill="black"/>
<path d="M57.0292 39.374H55.0675V41.3356H57.0292V39.374Z" fill="black"/>
<path d="M60.9526 39.374H58.9909V41.3356H60.9526V39.374Z" fill="black"/>
<path d="M9.94856 41.3356H7.98686V43.2973H9.94856V41.3356Z" fill="black"/>
<path d="M13.8719 41.3356H11.9102V43.2973H13.8719V41.3356Z" fill="black"/>
<path d="M15.8336 41.3356H13.8719V43.2973H15.8336V41.3356Z" fill="black"/>
<path d="M19.757 41.3356H17.7953V43.2973H19.757V41.3356Z" fill="black"/>
<path d="M21.7187 41.3356H19.757V43.2973H21.7187V41.3356Z" fill="black"/>
<path d="M25.6421 41.3356H23.6804V43.2973H25.6421V41.3356Z" fill="black"/>
<path d="M29.5655 41.3356H27.6038V43.2973H29.5655V41.3356Z" fill="black"/>
<path d="M31.5272 41.3356H29.5655V43.2973H31.5272V41.3356Z" fill="black"/>
<path d="M33.4889 41.3356H31.5272V43.2973H33.4889V41.3356Z" fill="black"/>
<path d="M35.4506 41.3356H33.4889V43.2973H35.4506V41.3356Z" fill="black"/>
<path d="M39.374 41.3356H37.4123V43.2973H39.374V41.3356Z" fill="black"/>
<path d="M45.259 41.3356H43.2973V43.2973H45.259V41.3356Z" fill="black"/>
<path d="M47.2207 41.3356H45.259V43.2973H47.2207V41.3356Z" fill="black"/>
<path d="M49.1824 41.3356H47.2207V43.2973H49.1824V41.3356Z" fill="black"/>
<path d="M60.9526 41.3356H58.9909V43.2973H60.9526V41.3356Z" fill="black"/>
<path d="M11.9102 43.2973H9.94856V45.259H11.9102V43.2973Z" fill="black"/>
<path d="M17.7953 43.2973H15.8336V45.259H17.7953V43.2973Z" fill="black"/>
<path d="M23.6804 43.2973H21.7187V45.259H23.6804V43.2973Z" fill="black"/>
<path d="M25.6421 43.2973H23.6804V45.259H25.6421V43.2973Z" fill="black"/>
<path d="M27.6038 43.2973H25.6421V45.259H27.6038V43.2973Z" fill="black"/>
<path d="M41.3356 43.2973H39.374V45.259H41.3356V43.2973Z" fill="black"/>
<path d="M43.2973 43.2973H41.3356V45.259H43.2973V43.2973Z" fill="black"/>
<path d="M45.259 43.2973H43.2973V45.259H45.259V43.2973Z" fill="black"/>
<path d="M47.2207 43.2973H45.259V45.259H47.2207V43.2973Z" fill="black"/>
<path d="M49.1824 43.2973H47.2207V45.259H49.1824V43.2973Z" fill="black"/>
<path d="M51.1441 43.2973H49.1824V45.259H51.1441V43.2973Z" fill="black"/>
<path d="M53.1058 43.2973H51.1441V45.259H53.1058V43.2973Z" fill="black"/>
<path d="M55.0675 43.2973H53.1058V45.259H55.0675V43.2973Z" fill="black"/>
<path d="M23.6804 45.259H21.7187V47.2207H23.6804V45.259Z" fill="black"/>
<path d="M25.6421 45.259H23.6804V47.2207H25.6421V45.259Z" fill="black"/>
<path d="M27.6038 45.259H25.6421V47.2207H27.6038V45.259Z" fill="black"/>
<path d="M39.374 45.259H37.4123V47.2207H39.374V45.259Z" fill="black"/>
<path d="M43.2973 45.259H41.3356V47.2207H43.2973V45.259Z" fill="black"/>
<path d="M45.259 45.259H43.2973V47.2207H45.259V45.259Z" fill="black"/>
<path d="M53.1058 45.259H51.1441V47.2207H53.1058V45.259Z" fill="black"/>
<path d="M55.0675 45.259H53.1058V47.2207H55.0675V45.259Z" fill="black"/>
<path d="M57.0292 45.259H55.0675V47.2207H57.0292V45.259Z" fill="black"/>
<path d="M6.02517 47.2207H4.06348V49.1824H6.02517V47.2207Z" fill="black"/>
<path d="M7.98686 47.2207H6.02517V49.1824H7.98686V47.2207Z" fill="black"/>
<path d="M9.94856 47.2207H7.98686V49.1824H9.94856V47.2207Z" fill="black"/>
<path d="M11.9102 47.2207H9.94856V49.1824H11.9102V47.2207Z" fill="black"/>
<path d="M13.8719 47.2207H11.9102V49.1824H13.8719V47.2207Z" fill="black"/>
<path d="M15.8336 47.2207H13.8719V49.1824H15.8336V47.2207Z" fill="black"/>
<path d="M17.7953 47.2207H15.8336V49.1824H17.7953V47.2207Z" fill="black"/>
<path d="M31.5272 47.2207H29.5655V49.1824H31.5272V47.2207Z" fill="black"/>
<path d="M33.4889 47.2207H31.5272V49.1824H33.4889V47.2207Z" fill="black"/>
<path d="M39.374 47.2207H37.4123V49.1824H39.374V47.2207Z" fill="black"/>
<path d="M45.259 47.2207H43.2973V49.1824H45.259V47.2207Z" fill="black"/>
<path d="M49.1824 47.2207H47.2207V49.1824H49.1824V47.2207Z" fill="black"/>
<path d="M53.1058 47.2207H51.1441V49.1824H53.1058V47.2207Z" fill="black"/>
<path d="M58.9909 47.2207H57.0292V49.1824H58.9909V47.2207Z" fill="black"/>
<path d="M60.9526 47.2207H58.9909V49.1824H60.9526V47.2207Z" fill="black"/>
<path d="M6.02517 49.1824H4.06348V51.1441H6.02517V49.1824Z" fill="black"/>
<path d="M17.7953 49.1824H15.8336V51.1441H17.7953V49.1824Z" fill="black"/>
<path d="M23.6804 49.1824H21.7187V51.1441H23.6804V49.1824Z" fill="black"/>
<path d="M25.6421 49.1824H23.6804V51.1441H25.6421V49.1824Z" fill="black"/>
<path d="M27.6038 49.1824H25.6421V51.1441H27.6038V49.1824Z" fill="black"/>
<path d="M29.5655 49.1824H27.6038V51.1441H29.5655V49.1824Z" fill="black"/>
<path d="M33.4889 49.1824H31.5272V51.1441H33.4889V49.1824Z" fill="black"/>
<path d="M41.3356 49.1824H39.374V51.1441H41.3356V49.1824Z" fill="black"/>
<path d="M43.2973 49.1824H41.3356V51.1441H43.2973V49.1824Z" fill="black"/>
<path d="M45.259 49.1824H43.2973V51.1441H45.259V49.1824Z" fill="black"/>
<path d="M53.1058 49.1824H51.1441V51.1441H53.1058V49.1824Z" fill="black"/>
<path d="M57.0292 49.1824H55.0675V51.1441H57.0292V49.1824Z" fill="black"/>
<path d="M58.9909 49.1824H57.0292V51.1441H58.9909V49.1824Z" fill="black"/>
<path d="M60.9526 49.1824H58.9909V51.1441H60.9526V49.1824Z" fill="black"/>
<path d="M6.02517 51.1441H4.06348V53.1058H6.02517V51.1441Z" fill="black"/>
<path d="M9.94856 51.1441H7.98686V53.1058H9.94856V51.1441Z" fill="black"/>
<path d="M11.9102 51.1441H9.94856V53.1058H11.9102V51.1441Z" fill="black"/>
<path d="M13.8719 51.1441H11.9102V53.1058H13.8719V51.1441Z" fill="black"/>
<path d="M17.7953 51.1441H15.8336V53.1058H17.7953V51.1441Z" fill="black"/>
<path d="M25.6421 51.1441H23.6804V53.1058H25.6421V51.1441Z" fill="black"/>
<path d="M27.6038 51.1441H25.6421V53.1058H27.6038V51.1441Z" fill="black"/>
<path d="M35.4506 51.1441H33.4889V53.1058H35.4506V51.1441Z" fill="black"/>
<path d="M41.3356 51.1441H39.374V53.1058H41.3356V51.1441Z" fill="black"/>
<path d="M45.259 51.1441H43.2973V53.1058H45.259V51.1441Z" fill="black"/>
<path d="M47.2207 51.1441H45.259V53.1058H47.2207V51.1441Z" fill="black"/>
<path d="M49.1824 51.1441H47.2207V53.1058H49.1824V51.1441Z" fill="black"/>
<path d="M51.1441 51.1441H49.1824V53.1058H51.1441V51.1441Z" fill="black"/>
<path d="M53.1058 51.1441H51.1441V53.1058H53.1058V51.1441Z" fill="black"/>
<path d="M55.0675 51.1441H53.1058V53.1058H55.0675V51.1441Z" fill="black"/>
<path d="M6.02517 53.1058H4.06348V55.0675H6.02517V53.1058Z" fill="black"/>
<path d="M9.94856 53.1058H7.98686V55.0675H9.94856V53.1058Z" fill="black"/>
<path d="M11.9102 53.1058H9.94856V55.0675H11.9102V53.1058Z" fill="black"/>
<path d="M13.8719 53.1058H11.9102V55.0675H13.8719V53.1058Z" fill="black"/>
<path d="M17.7953 53.1058H15.8336V55.0675H17.7953V53.1058Z" fill="black"/>
<path d="M23.6804 53.1058H21.7187V55.0675H23.6804V53.1058Z" fill="black"/>
<path d="M29.5655 53.1058H27.6038V55.0675H29.5655V53.1058Z" fill="black"/>
<path d="M31.5272 53.1058H29.5655V55.0675H31.5272V53.1058Z" fill="black"/>
<path d="M33.4889 53.1058H31.5272V55.0675H33.4889V53.1058Z" fill="black"/>
<path d="M35.4506 53.1058H33.4889V55.0675H35.4506V53.1058Z" fill="black"/>
<path d="M39.374 53.1058H37.4123V55.0675H39.374V53.1058Z" fill="black"/>
<path d="M41.3356 53.1058H39.374V55.0675H41.3356V53.1058Z" fill="black"/>
<path d="M45.259 53.1058H43.2973V55.0675H45.259V53.1058Z" fill="black"/>
<path d="M47.2207 53.1058H45.259V55.0675H47.2207V53.1058Z" fill="black"/>
<path d="M55.0675 53.1058H53.1058V55.0675H55.0675V53.1058Z" fill="black"/>
<path d="M57.0292 53.1058H55.0675V55.0675H57.0292V53.1058Z" fill="black"/>
<path d="M58.9909 53.1058H57.0292V55.0675H58.9909V53.1058Z" fill="black"/>
<path d="M6.02517 55.0675H4.06348V57.0292H6.02517V55.0675Z" fill="black"/>
<path d="M9.94856 55.0675H7.98686V57.0292H9.94856V55.0675Z" fill="black"/>
<path d="M11.9102 55.0675H9.94856V57.0292H11.9102V55.0675Z" fill="black"/>
<path d="M13.8719 55.0675H11.9102V57.0292H13.8719V55.0675Z" fill="black"/>
<path d="M17.7953 55.0675H15.8336V57.0292H17.7953V55.0675Z" fill="black"/>
<path d="M21.7187 55.0675H19.757V57.0292H21.7187V55.0675Z" fill="black"/>
<path d="M29.5655 55.0675H27.6038V57.0292H29.5655V55.0675Z" fill="black"/>
<path d="M31.5272 55.0675H29.5655V57.0292H31.5272V55.0675Z" fill="black"/>
<path d="M41.3356 55.0675H39.374V57.0292H41.3356V55.0675Z" fill="black"/>
<path d="M43.2973 55.0675H41.3356V57.0292H43.2973V55.0675Z" fill="black"/>
<path d="M53.1058 55.0675H51.1441V57.0292H53.1058V55.0675Z" fill="black"/>
<path d="M57.0292 55.0675H55.0675V57.0292H57.0292V55.0675Z" fill="black"/>
<path d="M58.9909 55.0675H57.0292V57.0292H58.9909V55.0675Z" fill="black"/>
<path d="M60.9526 55.0675H58.9909V57.0292H60.9526V55.0675Z" fill="black"/>
<path d="M6.02517 57.0292H4.06348V58.9909H6.02517V57.0292Z" fill="black"/>
<path d="M17.7953 57.0292H15.8336V58.9909H17.7953V57.0292Z" fill="black"/>
<path d="M21.7187 57.0292H19.757V58.9909H21.7187V57.0292Z" fill="black"/>
<path d="M23.6804 57.0292H21.7187V58.9909H23.6804V57.0292Z" fill="black"/>
<path d="M25.6421 57.0292H23.6804V58.9909H25.6421V57.0292Z" fill="black"/>
<path d="M27.6038 57.0292H25.6421V58.9909H27.6038V57.0292Z" fill="black"/>
<path d="M29.5655 57.0292H27.6038V58.9909H29.5655V57.0292Z" fill="black"/>
<path d="M33.4889 57.0292H31.5272V58.9909H33.4889V57.0292Z" fill="black"/>
<path d="M37.4123 57.0292H35.4506V58.9909H37.4123V57.0292Z" fill="black"/>
<path d="M39.374 57.0292H37.4123V58.9909H39.374V57.0292Z" fill="black"/>
<path d="M43.2973 57.0292H41.3356V58.9909H43.2973V57.0292Z" fill="black"/>
<path d="M49.1824 57.0292H47.2207V58.9909H49.1824V57.0292Z" fill="black"/>
<path d="M51.1441 57.0292H49.1824V58.9909H51.1441V57.0292Z" fill="black"/>
<path d="M55.0675 57.0292H53.1058V58.9909H55.0675V57.0292Z" fill="black"/>
<path d="M58.9909 57.0292H57.0292V58.9909H58.9909V57.0292Z" fill="black"/>
<path d="M60.9526 57.0292H58.9909V58.9909H60.9526V57.0292Z" fill="black"/>
<path d="M6.02517 58.9909H4.06348V60.9526H6.02517V58.9909Z" fill="black"/>
<path d="M7.98686 58.9909H6.02517V60.9526H7.98686V58.9909Z" fill="black"/>
<path d="M9.94856 58.9909H7.98686V60.9526H9.94856V58.9909Z" fill="black"/>
<path d="M11.9102 58.9909H9.94856V60.9526H11.9102V58.9909Z" fill="black"/>
<path d="M13.8719 58.9909H11.9102V60.9526H13.8719V58.9909Z" fill="black"/>
<path d="M15.8336 58.9909H13.8719V60.9526H15.8336V58.9909Z" fill="black"/>
<path d="M17.7953 58.9909H15.8336V60.9526H17.7953V58.9909Z" fill="black"/>
<path d="M23.6804 58.9909H21.7187V60.9526H23.6804V58.9909Z" fill="black"/>
<path d="M31.5272 58.9909H29.5655V60.9526H31.5272V58.9909Z" fill="black"/>
<path d="M33.4889 58.9909H31.5272V60.9526H33.4889V58.9909Z" fill="black"/>
<path d="M35.4506 58.9909H33.4889V60.9526H35.4506V58.9909Z" fill="black"/>
<path d="M43.2973 58.9909H41.3356V60.9526H43.2973V58.9909Z" fill="black"/>
<path d="M45.259 58.9909H43.2973V60.9526H45.259V58.9909Z" fill="black"/>
<path d="M47.2207 58.9909H45.259V60.9526H47.2207V58.9909Z" fill="black"/>
<path d="M51.1441 58.9909H49.1824V60.9526H51.1441V58.9909Z" fill="black"/>
<path d="M57.0292 58.9909H55.0675V60.9526H57.0292V58.9909Z" fill="black"/>
</g>
<defs>
<clipPath id="clip0_737_21034">
<rect width="65.0161" height="65.0161" fill="white"/>
</clipPath>
</defs>
</svg>
