<svg xmlns="http://www.w3.org/2000/svg" width="132" height="132" viewBox="0 0 132 132">
  <rect width="132" height="132" fill="#0f172a"/>
  <rect x="10" y="10" width="32" height="32" fill="#ffffff"/>
  <rect x="90" y="10" width="32" height="32" fill="#ffffff"/>
  <rect x="10" y="90" width="32" height="32" fill="#ffffff"/>
  <rect x="22" y="22" width="8" height="8" fill="#0f172a"/>
  <rect x="102" y="22" width="8" height="8" fill="#0f172a"/>
  <rect x="22" y="102" width="8" height="8" fill="#0f172a"/>
  <rect x="52" y="52" width="12" height="12" fill="#ffffff"/>
  <rect x="68" y="52" width="12" height="12" fill="#ffffff"/>
  <rect x="52" y="68" width="12" height="12" fill="#ffffff"/>
  <rect x="68" y="68" width="12" height="12" fill="#ffffff"/>
  <rect x="60" y="60" width="12" height="12" fill="#0f172a"/>
  <rect x="92" y="92" width="12" height="12" fill="#0f172a"/>
  <rect x="108" y="76" width="12" height="12" fill="#0f172a"/>
  <rect x="76" y="108" width="12" height="12" fill="#0f172a"/>
</svg>

